# xmcd
#
# Track frame offsets: 
#        150
#        20759
#        48497
#        73061
#        92964
#        116469
#        138111
#        165619
#        188353
#        206233
#
# Disc length: 2948 seconds
#
# Revision: 0
# Processed by: cddbd v1.5.2PL0 Copyright (c) Steve Scherf et al.
# Submitted via: ExactAudioCopy v1.0b3
#
DISCID=8a0b820a
DTITLE=Quang Le - Khuc Tinh Song Ca 2
DYEAR=2012
DGENRE=
TTITLE0=Quang Le, Quynh Dung - Hoi anh hoi em
TTITLE1=Truong Vu, Tieu Phung - Tinh ngheo
TTITLE2=Manh Dinh, Ha Vy - Dinh menh
TTITLE3=Quang Le, Tam Phuong Anh - Phan gai thuyen quyen
TTITLE4=Huong Lan, Thanh Tuyen - Tren ben song buon
TTITLE5=Thai Chau, Thach Thao - Thuong hoai ngan nam
TTITLE6=Quang Le, Tam Phuong Anh - Me tu bi
TTITLE7=Ngoc Huyen, Dang The Luan - Noi lai tinh xua
TTITLE8=Tuan Vu, Son Tuyen - Khuya nay anh di roi
TTITLE9=Manh Quynh, Tam Phuong Anh - Tau ve que huong
EXTD=
EXTT0=
EXTT1=
EXTT2=
EXTT3=
EXTT4=
EXTT5=
EXTT6=
EXTT7=
EXTT8=
EXTT9=
PLAYORDER=
